# xmcd
#
# Track frame offsets: 
#        150
#        9540
#        19045
#        30877
#        42700
#        56492
#        69480
#        81435
#        93655
#        102900
#        113695
#        125572
#        141062
#        155912
#        167060
#        179740
#        194182
#        207122
#        220787
#        234522
#        248577
#        257615
#        271477
#        282910
#
# Disc length: 3916 seconds
#
# Revision: 3
# Processed by: cddbd v1.5.2PL0 Copyright (c) Steve Scherf et al.
# Submitted via: ExactAudioCopyFreeDBPlugin 1.0
#
DISCID=610f4a18
DTITLE=Jackie Wilson - Jackie Wilson:  Mr. Excitement! [Rhino box set]
DYEAR=1992
DGENRE=Rhythm and Blues
TTITLE0=Sazzle Dazzle
TTITLE1=(You Were Made For) All My Love
TTITLE2=A Woman, A Lover, A Friend
TTITLE3=Am I the Man
TTITLE4=Alone at Last
TTITLE5=My Empty Arms
TTITLE6=The Tear of the Year
TTITLE7=Your One and Only Love
TTITLE8=Please Tell Me Why
TTITLE9=I'm Comin' on Back to You
TTITLE10=Years from Now
TTITLE11=You Don't Know What it Means
TTITLE12=Stormy Weather (Keeps Rainin' All the Time)
TTITLE13=Lonely Life
TTITLE14=My Heart Belongs to Only You
TTITLE15=The Greatest Hurt
TTITLE16=I Found Love (with Linda Hopkins)
TTITLE17=I Just Can't Help It
TTITLE18=Baby Workout
TTITLE19=Shake A Hand (with Linda Hopkins)
TTITLE20=Squeeze Her - Tease Her (But Love Her)
TTITLE21=I've Got to Get Back (Country Boy)
TTITLE22=Silent One
TTITLE23=She's All Right
EXTD=
EXTT0=
EXTT1=
EXTT2=
EXTT3=
EXTT4=
EXTT5=
EXTT6=
EXTT7=
EXTT8=
EXTT9=
EXTT10=
EXTT11=
EXTT12=
EXTT13=
EXTT14=
EXTT15=
EXTT16=
EXTT17=
EXTT18=
EXTT19=
EXTT20=
EXTT21=
EXTT22=
EXTT23=
PLAYORDER=
